<svg xmlns="http://www.w3.org/2000/svg" width="169.952" height="205.801" viewBox="0 0 169.952 205.801">
  <defs>
    <style>
      .cls-1 {
        fill: #2d2d2d;
      }

      .cls-2 {
        fill: #e6e8ec;
      }

      .cls-3 {
        fill: #fff;
      }

      .cls-4 {
        fill: #f2f2f2;
      }

      .cls-5 {
        fill: #e6e6e6;
      }

      .cls-6 {
        fill: #2c7b35;
      }

      .cls-7 {
        fill: #ffb9b9;
      }

      .cls-8 {
        fill: #2f2e41;
      }

      .cls-9 {
        fill: #61544a;
      }

      .cls-10 {
        fill: #6971b7;
      }

      .cls-11 {
        opacity: 0.2;
      }

      .cls-12 {
        fill: #646464;
      }
    </style>
  </defs>
  <g id="undraw_home_screen_4n7s" transform="translate(0 0)">
    <path id="Path_43" data-name="Path 43" class="cls-1" d="M479.167,149.583v23.28a.814.814,0,0,1-.812.812h-.578V294.948A12.654,12.654,0,0,1,465.124,307.6H389.347A12.651,12.651,0,0,1,376.7,294.95V177.928h-.418a.573.573,0,0,1-.574-.571V164.108a.574.574,0,0,1,.574-.574h.418v-4.99h-.422a.6.6,0,0,1-.6-.6V144.873a.6.6,0,0,1,.6-.6h.422v-6.812h-.429a.531.531,0,0,1-.532-.53V129.8a.534.534,0,0,1,.532-.535h.429v-14.44a12.651,12.651,0,0,1,12.65-12.65h75.777a12.654,12.654,0,0,1,12.654,12.65v33.949h.578A.814.814,0,0,1,479.167,149.583Z" transform="translate(-357.064 -102.173)"/>
    <path id="Path_44" data-name="Path 44" class="cls-2" d="M205.77,21.933h12.313a.9.9,0,0,1,.9.9V23.9a.9.9,0,0,1-.9.9H205.77a.9.9,0,0,1-.9-.9V22.834A.9.9,0,0,1,205.77,21.933Z" transform="translate(-144.261 -15.445)"/>
    <circle id="Ellipse_8" data-name="Ellipse 8" class="cls-2" cx="1.626" cy="1.626" r="1.626" transform="translate(76.857 6.296)"/>
    <path id="Path_45" data-name="Path 45" class="cls-3" d="M489.447,134.28V312.959a8.029,8.029,0,0,1-8.028,8.025H408.882a8.016,8.016,0,0,1-8.028-8V134.287a8.028,8.028,0,0,1,8.028-8.028h10.856v1.393a6.61,6.61,0,0,0,6.61,6.61H463.24a6.61,6.61,0,0,0,6.61-6.61v-1.393h11.569A8.022,8.022,0,0,1,489.447,134.28Z" transform="translate(-374.793 -119.133)"/>
    <path id="Path_46" data-name="Path 46" class="cls-4" d="M489.447,676.284v23.982a8.029,8.029,0,0,1-8.028,8.025H408.882a8.016,8.016,0,0,1-8.028-8v-24Z" transform="translate(-374.793 -506.44)"/>
    <path id="Path_47" data-name="Path 47" class="cls-5" d="M424.651,201.835a1.065,1.065,0,0,0-1.063,1.063v19.14a1.065,1.065,0,0,0,1.063,1.063h19.14a1.064,1.064,0,0,0,1.063-1.063V202.9a1.064,1.064,0,0,0-1.063-1.063Z" transform="translate(-390.801 -172.351)"/>
    <path id="Path_48" data-name="Path 48" class="cls-5" d="M515.707,201.835a1.065,1.065,0,0,0-1.063,1.063v19.14a1.065,1.065,0,0,0,1.063,1.063h19.14a1.064,1.064,0,0,0,1.063-1.063V202.9a1.064,1.064,0,0,0-1.063-1.063Z" transform="translate(-454.919 -172.351)"/>
    <path id="Path_49" data-name="Path 49" class="cls-5" d="M606.763,201.835A1.064,1.064,0,0,0,605.7,202.9v19.14a1.064,1.064,0,0,0,1.063,1.063H625.9a1.065,1.065,0,0,0,1.063-1.063V202.9a1.065,1.065,0,0,0-1.063-1.063Z" transform="translate(-519.038 -172.351)"/>
    <path id="Path_50" data-name="Path 50" class="cls-5" d="M424.8,301.278a1.064,1.064,0,0,0-1.063,1.063v19.14a1.064,1.064,0,0,0,1.063,1.063h19.14A1.064,1.064,0,0,0,445,321.481v-19.14a1.064,1.064,0,0,0-1.063-1.063Z" transform="translate(-390.907 -242.375)"/>
    <path id="Path_51" data-name="Path 51" class="cls-5" d="M515.857,301.278a1.065,1.065,0,0,0-1.063,1.063v19.14a1.065,1.065,0,0,0,1.063,1.063H535a1.064,1.064,0,0,0,1.063-1.063v-19.14A1.064,1.064,0,0,0,535,301.278Z" transform="translate(-455.025 -242.375)"/>
    <path id="Path_52" data-name="Path 52" class="cls-5" d="M606.913,301.278a1.065,1.065,0,0,0-1.063,1.063v19.14a1.064,1.064,0,0,0,1.063,1.063h19.14a1.064,1.064,0,0,0,1.063-1.063v-19.14a1.064,1.064,0,0,0-1.063-1.063Z" transform="translate(-519.143 -242.375)"/>
    <path id="Path_53" data-name="Path 53" class="cls-5" d="M424.951,400.72a1.064,1.064,0,0,0-1.063,1.063v19.14a1.065,1.065,0,0,0,1.063,1.063h19.14a1.064,1.064,0,0,0,1.063-1.063v-19.14a1.065,1.065,0,0,0-1.063-1.063Z" transform="translate(-391.013 -312.398)"/>
    <path id="Path_54" data-name="Path 54" class="cls-5" d="M516.007,400.72a1.065,1.065,0,0,0-1.063,1.063v19.14a1.065,1.065,0,0,0,1.063,1.063h19.14a1.065,1.065,0,0,0,1.063-1.063v-19.14a1.064,1.064,0,0,0-1.063-1.063Z" transform="translate(-455.131 -312.398)"/>
    <path id="Path_55" data-name="Path 55" class="cls-5" d="M607.062,400.72A1.065,1.065,0,0,0,606,401.783v19.14a1.065,1.065,0,0,0,1.063,1.063H626.2a1.065,1.065,0,0,0,1.063-1.063v-19.14a1.065,1.065,0,0,0-1.063-1.063Z" transform="translate(-519.248 -312.398)"/>
    <path id="Path_56" data-name="Path 56" class="cls-6" d="M424.8,694.255a1.064,1.064,0,0,0-1.063,1.063v19.14a1.064,1.064,0,0,0,1.063,1.063h19.14A1.064,1.064,0,0,0,445,714.458v-19.14a1.064,1.064,0,0,0-1.063-1.063Z" transform="translate(-390.907 -519.094)"/>
    <path id="Path_57" data-name="Path 57" class="cls-6" d="M515.857,694.255a1.065,1.065,0,0,0-1.063,1.063v19.14a1.065,1.065,0,0,0,1.063,1.063H535a1.064,1.064,0,0,0,1.063-1.063v-19.14A1.064,1.064,0,0,0,535,694.255Z" transform="translate(-455.025 -519.094)"/>
    <path id="Path_58" data-name="Path 58" class="cls-6" d="M606.913,694.255a1.064,1.064,0,0,0-1.063,1.063v19.14a1.065,1.065,0,0,0,1.063,1.063h19.14a1.064,1.064,0,0,0,1.063-1.063v-19.14a1.064,1.064,0,0,0-1.063-1.063Z" transform="translate(-519.143 -519.094)"/>
    <path id="Path_59" data-name="Path 59" class="cls-5" d="M425.1,500.163a1.064,1.064,0,0,0-1.063,1.063v19.14a1.064,1.064,0,0,0,1.063,1.063h19.14a1.064,1.064,0,0,0,1.063-1.063v-19.14a1.064,1.064,0,0,0-1.063-1.063Z" transform="translate(-391.118 -382.422)"/>
    <path id="Path_60" data-name="Path 60" class="cls-7" d="M767.027,449.157l.97,4.8a4.05,4.05,0,0,0,4.895,3.141h0a4.05,4.05,0,0,0,2.375-6.29l-2.808-3.947-6.945-19.048,1.268-16.315c-3.986-1.5-8.044-3.174-10.244-.217l2.733,17.852Z" transform="translate(-625.252 -318.687)"/>
    <path id="Path_61" data-name="Path 61" class="cls-6" d="M802.753,554.242a.932.932,0,0,0-.931.931v16.766a.932.932,0,0,0,.931.931h16.766a.932.932,0,0,0,.931-.931V555.174a.933.933,0,0,0-.932-.931Z" transform="translate(-657.139 -420.503)"/>
    <path id="Path_62" data-name="Path 62" class="cls-8" d="M766.682,306.407c0-.1,0-.2,0-.3A11.251,11.251,0,0,0,755.45,295a11.073,11.073,0,0,0-7.944,3.342,11.461,11.461,0,0,0-3.29,8.067V317.58h22.467Z" transform="translate(-616.575 -237.952)"/>
    <path id="Path_63" data-name="Path 63" class="cls-9" d="M765.973,776.569h0a2.328,2.328,0,0,0-1.042-2.283l-6.681-3.279-5.037.636-1.19,4.265a2.27,2.27,0,0,0,1.986,2.626l9.4.021A2.328,2.328,0,0,0,765.973,776.569Z" transform="translate(-622.052 -573.141)"/>
    <path id="Path_64" data-name="Path 64" class="cls-10" d="M408.248,457.583l.775,4.949.07.454,2.978,19.024.92,5.88.282,1.8.783,5.691,3.649,26.5,6.344-1.438.3-30.552.052-5.245.049-4.434.044-3.9.176-15.686Z" transform="translate(-287.473 -322.212)"/>
    <circle id="Ellipse_9" data-name="Ellipse 9" class="cls-7" cx="8.506" cy="8.506" r="8.506" transform="translate(132.723 59.313)"/>
    <path id="Path_65" data-name="Path 65" class="cls-7" d="M758.28,356.239l9.64,4.82a23.7,23.7,0,0,1,2.977-13.751l-8.364-1.276C762.42,349.391,760.721,352.8,758.28,356.239Z" transform="translate(-626.479 -273.889)"/>
    <path id="Path_66" data-name="Path 66" class="cls-5" d="M737.3,405.608l17.012,3.686,1.418-11.058c.923-4.729,2.587-9.355-.327-13.071l-.427-3.822a12.341,12.341,0,0,0-5.724-9.094l-5.146-3.216C733.442,374.8,733.871,389.057,737.3,405.608Z" transform="translate(-610.182 -290.085)"/>
    <path id="Path_67" data-name="Path 67" class="cls-11" d="M424.278,541.761l.282,1.8.783,5.691,10.3-5.489.052-5.245.049-4.434Z" transform="translate(-298.76 -376.084)"/>
    <path id="Path_68" data-name="Path 68" class="cls-11" d="M721.01,559.755l.775,4.95.07.454a18.632,18.632,0,0,0,4.737,5.263l10.666,8.067.176-15.686Z" transform="translate(-600.235 -424.385)"/>
    <path id="Path_69" data-name="Path 69" class="cls-10" d="M719.162,536.688l1.985,6.663,25.642-13.673a6.866,6.866,0,0,0,1.72-10.477l-14.037-15.97L740.71,489.2l-17.862-4.678-1.985,4.253q-6.219,5.8-5.6,13.549a18.235,18.235,0,0,0,7.242,13.05l13.382,10.118Z" transform="translate(-596.15 -371.406)"/>
    <path id="Path_70" data-name="Path 70" class="cls-9" d="M716.921,670.71h0a2.308,2.308,0,0,0,2.192-1.176l3.843-6.885-.951-4.943-4.3-.9a2.25,2.25,0,0,0-2.471,2.132l-.446,9.367a2.308,2.308,0,0,0,2.128,2.411Z" transform="translate(-595.855 -492.713)"/>
    <path id="Path_71" data-name="Path 71" class="cls-7" d="M733.463,453.966l-.153,4.9a4.05,4.05,0,0,0,4.048,4.176h0a4.05,4.05,0,0,0,3.749-5.581l-1.831-4.484-2.41-20.131,4.962-15.594c-3.539-2.368-7.107-4.927-9.924-2.552l-1.418,18Z" transform="translate(-606.908 -321.573)"/>
    <path id="Path_72" data-name="Path 72" class="cls-5" d="M729.528,391.084c5.223-2.5,9.227-1.223,12.192,3.261l1.922-10.724a5.72,5.72,0,0,0-3.178-6.177h0a4.647,4.647,0,0,0-6.286,2.419Z" transform="translate(-606.233 -295.691)"/>
    <path id="Path_73" data-name="Path 73" class="cls-8" d="M758.634,300.239l2.135,6.793,18.458-.328a11.41,11.41,0,0,0-20.593-6.464Z" transform="translate(-626.728 -238.373)"/>
    <path id="Path_74" data-name="Path 74" class="cls-12" d="M169.835,694.119H0v-.645H169.952Z" transform="translate(0 -488.318)"/>
  </g>
</svg>
