<svg xmlns="http://www.w3.org/2000/svg" width="170.235" height="154.556" viewBox="0 0 170.235 154.556">
  <defs>
    <style>
      .cls-1, .cls-6 {
        fill: #e6e6e6;
      }

      .cls-2 {
        fill: #fff;
      }

      .cls-3 {
        fill: #133116;
      }

      .cls-4 {
        fill: #2c7b35;
      }

      .cls-5 {
        fill: #575a89;
      }

      .cls-6 {
        opacity: 0.93;
      }

      .cls-7 {
        fill: #343434;
      }

      .cls-8 {
        fill: #6971b7;
      }

      .cls-9 {
        fill: #61544a;
      }

      .cls-10 {
        fill: #a0616a;
      }

      .cls-11 {
        fill: #2f2e41;
      }

      .cls-12 {
        opacity: 0.1;
      }
    </style>
  </defs>
  <g id="undraw_build_wireframe_u9m2" transform="translate(0)">
    <ellipse id="Ellipse_10" data-name="Ellipse 10" class="cls-1" cx="31.453" cy="6.566" rx="31.453" ry="6.566" transform="translate(0 141.424)"/>
    <path id="Path_75" data-name="Path 75" class="cls-1" d="M414.024,267.154c-3.759-.318-8.658-3.095-8.336-7.866a7.291,7.291,0,0,1,3.514-5.32,20.554,20.554,0,0,1,8.136-3.1,60.849,60.849,0,0,1,9.914-.718c3.272-.05,6.539-.141,9.8-.368a151.946,151.946,0,0,0,19.143-2.567,150.786,150.786,0,0,0,18.305-4.854q4.462-1.491,8.828-3.276a72.111,72.111,0,0,0,8.015-3.707c3.395-1.9,8.853-5.454,7.686-10.5-.619-2.677-2.85-4.579-5.008-5.823a36.124,36.124,0,0,0-8.343-3.137c-13.191-3.734-26.4-7.4-39.6-11.1-3.081-.863-6.176-1.691-9.2-2.782a28.246,28.246,0,0,1-8.108-4.2c-2.121-1.684-4.133-4.057-4.468-6.969a8.678,8.678,0,0,1,2.2-6.387c3.522-4.328,9.021-6.634,14.07-8.135,6.273-1.865,12.774-2.74,19.055-4.571,5.072-1.479,10.4-3.73,14.135-7.819a10.836,10.836,0,0,0,2.928-5.728,8.708,8.708,0,0,0-1.589-6.111,16.771,16.771,0,0,0-5.617-4.837,30.6,30.6,0,0,0-7.942-3.068c-5.989-1.463-12.126-1.816-18.183-2.741a42.818,42.818,0,0,1-8.829-2.069c-2.413-.919-5.084-2.235-6.666-4.517-3.264-4.708,2.482-8.555,5.815-10.168a53.567,53.567,0,0,1,7.066-2.709c.513-.164.173-1-.338-.835A51.444,51.444,0,0,0,433,124.053a15.451,15.451,0,0,0-5.479,4.1,6.117,6.117,0,0,0-1.155,5.615c.766,2.367,2.921,3.979,4.89,5.092a28.125,28.125,0,0,0,8.315,2.86c3.012.615,6.054,1,9.094,1.37,6.074.74,12.389,1.277,18.126,3.823,4.014,1.782,9.626,5.381,9.111,10.853a10.171,10.171,0,0,1-3.249,6.093,24.873,24.873,0,0,1-6.679,4.559c-11.209,5.48-24.5,4.445-35.219,11.278-3.644,2.323-7.923,6.234-7.264,11.387a11.315,11.315,0,0,0,3.846,6.674,24.727,24.727,0,0,0,7.7,4.532,87.455,87.455,0,0,0,8.847,2.839q4.966,1.4,9.933,2.785l20.1,5.634,9.986,2.8a47.4,47.4,0,0,1,9.027,3.12c2.346,1.205,5.21,3.315,5.4,6.391.154,2.443-1.56,4.452-3.185,5.861a30.157,30.157,0,0,1-7.033,4.314c-2.849,1.34-5.768,2.526-8.7,3.635a146.61,146.61,0,0,1-18.531,5.619,152.4,152.4,0,0,1-19.165,3.2q-4.891.5-9.809.674c-3.38.12-6.77.06-10.145.286a32.215,32.215,0,0,0-8.989,1.726,14.06,14.06,0,0,0-6.537,4.386,6.812,6.812,0,0,0-1.264,5.4,8.4,8.4,0,0,0,2.984,4.779,10.825,10.825,0,0,0,5.968,2.319c.537.045.643-.849.1-.9Z" transform="translate(-364.285 -118.953)"/>
    <path id="Path_90" data-name="Path 90" class="cls-1" d="M445.194,471.417a.8.8,0,0,0-.8.8v44.192a.8.8,0,0,0,.8.8H564.24a.8.8,0,0,0,.8-.8V472.216a.8.8,0,0,0-.8-.8Z" transform="translate(-394.804 -389.249)"/>
    <path id="Path_91" data-name="Path 91" class="cls-2" d="M462.55,486.3a.571.571,0,0,0-.571.571v37.853a.571.571,0,0,0,.571.571H574.023a.571.571,0,0,0,.571-.571V486.87a.571.571,0,0,0-.571-.571Z" transform="translate(-408.374 -400.733)"/>
    <path id="Path_92" data-name="Path 92" class="cls-1" d="M548.826,252.276a1.392,1.392,0,0,0-1.37,1.409v31.942a1.392,1.392,0,0,0,1.37,1.409h71.005a1.391,1.391,0,0,0,1.37-1.409V253.685a1.391,1.391,0,0,0-1.37-1.409Z" transform="translate(-474.335 -220.141)"/>
    <path id="Path_93" data-name="Path 93" class="cls-1" d="M548.826,111.526a1.468,1.468,0,0,0-1.37,1.546v22.251a1.468,1.468,0,0,0,1.37,1.546h71.005a1.468,1.468,0,0,0,1.37-1.546V113.072a1.468,1.468,0,0,0-1.37-1.546Z" transform="translate(-474.335 -111.526)"/>
    <rect id="Rectangle_12" data-name="Rectangle 12" class="cls-2" width="56.165" height="3.196" transform="translate(81.911 5.765)"/>
    <rect id="Rectangle_13" data-name="Rectangle 13" class="cls-2" width="56.165" height="1.484" transform="translate(82.025 12.5)"/>
    <rect id="Rectangle_14" data-name="Rectangle 14" class="cls-2" width="56.165" height="1.484" transform="translate(82.025 17.751)"/>
    <path id="Path_94" data-name="Path 94" class="cls-2" d="M605.808,313.593h25.848a.832.832,0,0,0,.588-1.42L615.7,295.63a.833.833,0,0,0-1.177,0l-4.114,4.114a1.745,1.745,0,0,1-2.468,0l-12.885-12.885a.833.833,0,0,0-1.177,0l-25.2,25.2a.832.832,0,0,0,.588,1.42h36.571Z" transform="translate(-490.526 -246.64)"/>
    <circle id="Ellipse_12" data-name="Ellipse 12" class="cls-2" cx="3.196" cy="3.196" r="3.196" transform="translate(81.34 36.473)"/>
    <path id="Path_95" data-name="Path 95" class="cls-1" d="M540.152,582.974a.343.343,0,0,0-.342.342V585.6a.343.343,0,0,0,.342.342h78.083a.343.343,0,0,0,.343-.342v-2.283a.343.343,0,0,0-.343-.342Z" transform="translate(-468.435 -475.336)"/>
    <path id="Path_96" data-name="Path 96" class="cls-3" d="M548.826,437.276a1.392,1.392,0,0,0-1.37,1.409v31.942a1.392,1.392,0,0,0,1.37,1.409h71.005a1.391,1.391,0,0,0,1.37-1.409V438.685a1.391,1.391,0,0,0-1.37-1.409Z" transform="translate(-474.335 -362.903)"/>
    <path id="Path_97" data-name="Path 97" class="cls-4" d="M605.808,498.593h25.848a.832.832,0,0,0,.588-1.42L615.7,480.63a.833.833,0,0,0-1.177,0l-4.114,4.113a1.745,1.745,0,0,1-2.468,0l-12.885-12.885a.833.833,0,0,0-1.177,0l-25.2,25.2a.832.832,0,0,0,.588,1.42h36.571Z" transform="translate(-490.526 -389.402)"/>
    <circle id="Ellipse_13" data-name="Ellipse 13" class="cls-4" cx="3.196" cy="3.196" r="3.196" transform="translate(81.34 78.711)"/>
    <g id="undraw_bear_market_ania" transform="translate(4.789 11.497)">
      <path id="Path_100" data-name="Path 100" class="cls-5" d="M951.72,286.6l-1.449.725s-7.851,19.688-5.194,24.4,10.991,13.528,10.991,13.528l1.57-4.469-6.422-13.922Z" transform="translate(-944.528 -257.489)"/>
      <path id="Path_101" data-name="Path 101" class="cls-6" d="M951.72,286.6l-1.449.725s-7.851,19.688-5.194,24.4,10.991,13.528,10.991,13.528l1.57-4.469-6.422-13.922Z" transform="translate(-944.528 -257.489)"/>
      <path id="Path_102" data-name="Path 102" class="cls-7" d="M939.418,679.465s-2.053,4.711-.966,5.073a12.339,12.339,0,0,0,3.744.362c1.329,0,2.9-.483,3.14-.966s-.966-3.624-.966-3.624Z" transform="translate(-930.656 -551.918)"/>
      <path id="Path_103" data-name="Path 103" class="cls-7" d="M827.63,686.577s-1.329,4.227-.725,4.469,2.536,1.329,3.623.966a12.5,12.5,0,0,0,3.14-1.57c.362-.362,0-2.295,0-2.295l-1.691-2.416Z" transform="translate(-791.208 -556.615)"/>
      <path id="Path_104" data-name="Path 104" class="cls-8" d="M831.287,433.547l-1.731.6s-.443,4.107.04,5.556,1.57,11.958.966,14.132a19.4,19.4,0,0,0-.242,5.677s-3.624,11.837-2.9,14.373a14.723,14.723,0,0,1-.121,7.972c-.725,1.812-1.329,2.536-.966,3.986s1.087,2.174.362,3.382-2.174,1.57-1.449,2.657,1.449,1.932,1.208,2.657,6.4,2.053,7.005.966c0,0-1.933-1.691,0-2.657s1.329-4.59,1.329-4.59,3.382-13.89,3.261-14.977,5.314-18,5.314-18,7.972,24.157,8.455,25.244-.6,3.744,0,4.469-.242,2.536.6,3.261-1.449,3.382,0,4.348,2.174,3.986,2.053,4.59,6.039-.121,6.039-.966a6.143,6.143,0,0,1,.483-3.02c.6-1.449.966-2.416.483-2.9s-.845-1.087-.362-2.778-.725-6.885-.362-7.851S861,472.2,861,472.2s-1.208-9.542-.845-11.112a3.866,3.866,0,0,0-.121-2.536c-.121-.6-.845-7.126-1.328-8.093s-1.087-17.514-3.865-18.359S831.287,433.547,831.287,433.547Z" transform="translate(-818.66 -366.393)"/>
      <path id="Path_105" data-name="Path 105" class="cls-9" d="M925.86,688.364s-4.348-.725-4.59,0-.966,6.4.725,6.522,4.59.483,5.073-.6,2.778-1.812,2.778-1.812,3.382-.966,3.382-2.053-.121-2.778-.725-2.9-3.02-1.449-3.02-1.933S925.86,688.364,925.86,688.364Z" transform="translate(-914.199 -556.469)"/>
      <path id="Path_106" data-name="Path 106" class="cls-9" d="M809.491,694.789s-3.14-.966-3.865-.362-1.691,7.247,0,7.126,6.16.6,6.4-.362,3.5-1.208,3.5-1.208,3.5-1.691,3.261-3.5-.6-2.416-2.053-2.536-2.536-1.812-2.657-1.933-1.186-1-1.318-.019S811.062,695.152,809.491,694.789Z" transform="translate(-770.654 -560.962)"/>
      <circle id="Ellipse_14" data-name="Ellipse 14" class="cls-10" cx="7.368" cy="7.368" r="7.368" transform="translate(21.565 2.052)"/>
      <path id="Path_107" data-name="Path 107" class="cls-10" d="M874.54,214.772s-.483,8.093-2.295,8.817,9.18.725,9.18.725.121-5.073,1.691-6.281S874.54,214.772,874.54,214.772Z" transform="translate(-852.008 -203.661)"/>
      <path id="Path_108" data-name="Path 108" class="cls-1" d="M855.562,240.116s7.489-2.778,10.146,1.57c0,0,8.455,3.986,9.059,6.4s-5.073,20.533-5.073,20.533,0,14.977,1.208,16.547,3.5,3.261,1.933,3.624-26.21,3.02-26.089,1.449,1.691-2.9,0-3.865-.242-2.053-1.329-5.194-3.744-29.109-3.744-29.109,1.812-3.261,2.174-3.624S855.562,240.116,855.562,240.116Z" transform="translate(-835.929 -222)"/>
      <path id="Path_109" data-name="Path 109" class="cls-10" d="M826.357,453.867s4.711,10.629.6,12.078-3.865-11.233-3.865-11.233Z" transform="translate(-785.104 -382.847)"/>
      <path id="Path_110" data-name="Path 110" class="cls-11" d="M859.735,181.219c.427-.856,1.066-1.843,2.021-1.791a3.49,3.49,0,0,1,1.33.547,1.36,1.36,0,0,0,1.375.076c.576-.411.4-1.386.912-1.871.562-.53,1.693-.234,2.055-.916.194-.364.037-.816.122-1.219a4.392,4.392,0,0,0,1.741-.2,1.5,1.5,0,0,0,1-1.321,1.512,1.512,0,0,0-.54-1.039,9.571,9.571,0,0,0-2.733-1.214c-.729-.326-1.363-.834-2.08-1.186a7.778,7.778,0,0,0-4.027-.62,9.2,9.2,0,0,0-5.686,2.288,5.686,5.686,0,0,0-1.654,5.691c.368,1.122,1.149,2.065,1.584,3.163a11.072,11.072,0,0,1,.552,2.32l.306,1.876c-.048-.292.594-1.024.8-1.2.459-.38,1.126-.251,1.551-.6C859,183.478,859.364,181.961,859.735,181.219Z" transform="translate(-834.335 -170.429)"/>
      <path id="Path_111" data-name="Path 111" class="cls-12" d="M836.452,270.965l1.933,1.208s3.14,18.963,2.778,21.62,1.449,17.634.846,18.842-.846,1.449-.846,2.174,1.691,3.382.6,3.865-5.073,1.329-5.073,0,.725-3.14-.6-3.986-2.295-6.281-2.295-6.281-.6-5.556-1.208-6.643A22.322,22.322,0,0,1,831.137,295c0-1.691-1.449-8.576-.6-12.078S831.62,270,836.452,270.965Z" transform="translate(-800.392 -245.722)"/>
      <path id="Path_112" data-name="Path 112" class="cls-1" d="M833.078,269.518l1.933,1.208s3.14,18.963,2.778,21.62,1.449,17.635.845,18.842-.845,1.449-.845,2.174,1.691,3.382.6,3.865-5.073,1.329-5.073,0,.725-3.14-.6-3.986-2.295-6.281-2.295-6.281-.6-5.556-1.208-6.643a22.32,22.32,0,0,1-1.449-6.764c0-1.691-1.449-8.576-.6-12.078S828.246,268.552,833.078,269.518Z" transform="translate(-796.173 -242.383)"/>
    </g>
  </g>
</svg>
