<svg xmlns="http://www.w3.org/2000/svg" width="242.465" height="183.264" viewBox="0 0 242.465 183.264">
  <defs>
    <style>
      .cls-1 {
        fill: #949494;
      }

      .cls-2 {
        fill: #f2f2f2;
      }

      .cls-3 {
        fill: #fff;
      }

      .cls-4 {
        fill: #2c7b35;
      }

      .cls-5 {
        fill: #ccc;
      }

      .cls-6 {
        fill: #e6e6e6;
      }

      .cls-7 {
        fill: #3f3d56;
      }
    </style>
  </defs>
  <g id="undraw_Landing_page_re_6xev" transform="translate(0)">
    <path id="Path_11" data-name="Path 11" class="cls-1" d="M410.534,185.664H644.4a3.362,3.362,0,0,1,3.359,3.36V347.495a3.362,3.362,0,0,1-3.359,3.36H410.534a3.357,3.357,0,0,1-2.555-1.179.769.769,0,0,1-.073-.092,3.143,3.143,0,0,1-.482-.813,3.275,3.275,0,0,1-.254-1.275V189.024A3.363,3.363,0,0,1,410.534,185.664Zm-2.4,161.831a2.379,2.379,0,0,0,.4,1.318,2.484,2.484,0,0,0,.909.817,2.383,2.383,0,0,0,1.1.266H644.4a2.4,2.4,0,0,0,2.4-2.4V189.024a2.4,2.4,0,0,0-2.4-2.4H410.534a2.4,2.4,0,0,0-2.4,2.4Z" transform="translate(-405.29 -185.664)"/>
    <rect id="Rectangle_3" data-name="Rectangle 3" class="cls-1" width="239.624" height="0.96" transform="translate(2.363 13.465)"/>
    <circle id="Ellipse_1" data-name="Ellipse 1" class="cls-1" cx="2.881" cy="2.881" r="2.881" transform="translate(230.942 4.322)"/>
    <circle id="Ellipse_2" data-name="Ellipse 2" class="cls-1" cx="2.881" cy="2.881" r="2.881" transform="translate(222.658 4.322)"/>
    <circle id="Ellipse_3" data-name="Ellipse 3" class="cls-1" cx="2.881" cy="2.881" r="2.881" transform="translate(214.374 4.322)"/>
    <path id="Path_12" data-name="Path 12" class="cls-2" d="M461.164,317.119H648.022a6.557,6.557,0,0,0,6.55-6.55V270.886a6.557,6.557,0,0,0-6.55-6.55H461.164a6.557,6.557,0,0,0-6.55,6.55v39.683A6.557,6.557,0,0,0,461.164,317.119Zm186.858-52.012a5.786,5.786,0,0,1,5.779,5.779v39.683a5.786,5.786,0,0,1-5.779,5.779H461.164a5.786,5.786,0,0,1-5.779-5.779V270.886a5.786,5.786,0,0,1,5.779-5.779Z" transform="translate(-430.386 -234.026)"/>
    <path id="Path_13" data-name="Path 13" class="cls-2" d="M461.164,519.716h41.224a6.557,6.557,0,0,0,6.55-6.55V483.886a6.557,6.557,0,0,0-6.55-6.55H461.164a6.557,6.557,0,0,0-6.55,6.55v29.281A6.557,6.557,0,0,0,461.164,519.716Zm41.224-41.61a5.786,5.786,0,0,1,5.779,5.779v29.281a5.786,5.786,0,0,1-5.779,5.779H461.164a5.786,5.786,0,0,1-5.779-5.779V483.886a5.786,5.786,0,0,1,5.779-5.779Z" transform="translate(-284.752 -364.962)"/>
    <path id="Path_14" data-name="Path 14" class="cls-2" d="M839.164,519.716h41.224a6.557,6.557,0,0,0,6.55-6.55V483.886a6.557,6.557,0,0,0-6.55-6.55H839.164a6.557,6.557,0,0,0-6.55,6.55v29.281A6.557,6.557,0,0,0,839.164,519.716Zm41.224-41.61a5.786,5.786,0,0,1,5.779,5.779v29.281a5.786,5.786,0,0,1-5.779,5.779H839.164a5.785,5.785,0,0,1-5.779-5.779V483.886a5.785,5.785,0,0,1,5.779-5.779Z" transform="translate(-808.386 -364.962)"/>
    <path id="Path_15" data-name="Path 15" class="cls-2" d="M658.164,519.716h41.224a6.557,6.557,0,0,0,6.55-6.55V483.886a6.557,6.557,0,0,0-6.55-6.55H658.164a6.557,6.557,0,0,0-6.55,6.55v29.281A6.557,6.557,0,0,0,658.164,519.716Zm41.224-41.61a5.785,5.785,0,0,1,5.779,5.779v29.281a5.786,5.786,0,0,1-5.779,5.779H658.164a5.786,5.786,0,0,1-5.779-5.779V483.886a5.786,5.786,0,0,1,5.779-5.779Z" transform="translate(-557.651 -364.962)"/>
    <rect id="Rectangle_4" data-name="Rectangle 4" class="cls-2" width="0.771" height="203.193" transform="translate(24.704 81.156) rotate(-103.748)"/>
    <rect id="Rectangle_5" data-name="Rectangle 5" class="cls-2" width="201.461" height="0.771" transform="translate(221.888 81.298) rotate(-166.086)"/>
    <path id="Path_16" data-name="Path 16" class="cls-3" d="M481.471,352.232H668.329a6.364,6.364,0,0,0,6.357-6.357V306.192a6.364,6.364,0,0,0-6.357-6.357H481.471a6.364,6.364,0,0,0-6.357,6.357v39.683A6.364,6.364,0,0,0,481.471,352.232Z" transform="translate(-458.398 -255.848)"/>
    <rect id="Rectangle_6" data-name="Rectangle 6" class="cls-2" width="0.771" height="62.626" transform="translate(96.798 153.24) rotate(-127.957)"/>
    <rect id="Rectangle_7" data-name="Rectangle 7" class="cls-2" width="62.412" height="0.771" transform="translate(144.801 153.711) rotate(-141.334)"/>
    <rect id="Rectangle_8" data-name="Rectangle 8" class="cls-2" width="0.771" height="62.626" transform="translate(172.697 153.24) rotate(-127.957)"/>
    <rect id="Rectangle_9" data-name="Rectangle 9" class="cls-2" width="62.412" height="0.771" transform="translate(220.7 153.71) rotate(-141.334)"/>
    <rect id="Rectangle_10" data-name="Rectangle 10" class="cls-2" width="0.771" height="62.626" transform="translate(27.063 153.24) rotate(-127.957)"/>
    <rect id="Rectangle_11" data-name="Rectangle 11" class="cls-2" width="62.412" height="0.771" transform="translate(75.066 153.711) rotate(-141.334)"/>
    <path id="Path_17" data-name="Path 17" class="cls-4" d="M673.471,592.831H714.7a6.364,6.364,0,0,0,6.357-6.357V557.193a6.364,6.364,0,0,0-6.357-6.357H673.471a6.364,6.364,0,0,0-6.357,6.357v29.281A6.364,6.364,0,0,0,673.471,592.831Z" transform="translate(-578.738 -410.145)"/>
    <path id="Path_18" data-name="Path 18" class="cls-5" d="M626.885,660.107H711.26a.385.385,0,1,0,0-.771H626.885a.385.385,0,0,0,0,.771Z" transform="translate(-553.683 -476.842)"/>
    <path id="Path_20" data-name="Path 20" class="cls-3" d="M718.149,590h10.788a3.082,3.082,0,0,0,0-6.164H718.149a3.082,3.082,0,1,0,0,6.164Z" transform="translate(-608.179 -430.431)"/>
    <path id="Path_21" data-name="Path 21" class="cls-3" d="M701.7,617h23.5a3.082,3.082,0,1,0,0-6.164H701.7a3.082,3.082,0,1,0,0,6.164Z" transform="translate(-598.102 -447.028)"/>
    <path id="Path_22" data-name="Path 22" class="cls-4" d="M478.471,534.831H519.7a6.364,6.364,0,0,0,6.357-6.357V499.193a6.364,6.364,0,0,0-6.357-6.357H478.471a6.364,6.364,0,0,0-6.357,6.357v29.281A6.364,6.364,0,0,0,478.471,534.831Z" transform="translate(-308.609 -374.491)"/>
    <path id="Path_23" data-name="Path 23" class="cls-3" d="M523.149,532h10.788a3.082,3.082,0,1,0,0-6.164H523.149a3.082,3.082,0,0,0,0,6.164Z" transform="translate(-338.051 -394.777)"/>
    <path id="Path_24" data-name="Path 24" class="cls-3" d="M506.7,559h23.5a3.082,3.082,0,0,0,0-6.164H506.7a3.082,3.082,0,1,0,0,6.164Z" transform="translate(-327.973 -411.374)"/>
    <path id="Path_25" data-name="Path 25" class="cls-6" d="M862.471,563.831H903.7a6.364,6.364,0,0,0,6.357-6.357V528.193a6.364,6.364,0,0,0-6.357-6.357H862.471a6.364,6.364,0,0,0-6.357,6.357v29.281A6.364,6.364,0,0,0,862.471,563.831Z" transform="translate(-840.554 -392.318)"/>
    <path id="Path_26" data-name="Path 26" class="cls-3" d="M907.149,561h10.788a3.082,3.082,0,1,0,0-6.165H907.149a3.082,3.082,0,0,0,0,6.165Z" transform="translate(-869.996 -412.604)"/>
    <path id="Path_27" data-name="Path 27" class="cls-3" d="M890.7,588h23.5a3.082,3.082,0,1,0,0-6.164H890.7a3.082,3.082,0,0,0,0,6.164Z" transform="translate(-859.918 -429.201)"/>
    <path id="Path_39" data-name="Path 39" class="cls-5" d="M815.885,631.107H900.26a.385.385,0,1,0,0-.77H815.885a.385.385,0,1,0,0,.77Z" transform="translate(-815.5 -459.016)"/>
    <path id="Path_40" data-name="Path 40" class="cls-4" d="M629.184,373.374v.487h82.333v-.51l-.443-.627-26.1-36.85a1.3,1.3,0,0,0-2.115,0l-17.5,24.71-12.46-17.436a1.3,1.3,0,0,0-2.111,0l-21.156,29.6Z" transform="translate(-554.589 -277.67)"/>
    <path id="Path_42" data-name="Path 42" class="cls-4" d="M9.583,0A9.583,9.583,0,1,1,0,9.583,9.583,9.583,0,0,1,9.583,0Z" transform="translate(147.516 52.02)"/>
    <path id="Path_41" data-name="Path 41" class="cls-7" d="M481.164,352.119H668.022a6.557,6.557,0,0,0,6.55-6.55V305.886a6.557,6.557,0,0,0-6.55-6.55H481.164a6.557,6.557,0,0,0-6.55,6.55v39.683A6.557,6.557,0,0,0,481.164,352.119Zm186.858-52.012a5.786,5.786,0,0,1,5.779,5.779v39.683a5.786,5.786,0,0,1-5.779,5.779H481.164a5.786,5.786,0,0,1-5.779-5.779V305.886a5.786,5.786,0,0,1,5.779-5.779Z" transform="translate(-458.091 -255.541)"/>
  </g>
</svg>
